<svg xmlns="http://www.w3.org/2000/svg" viewBox="6531.54 4191 30.722 30.722">
  <defs>
    <style>
      .cls-1 {
        opacity: 0.2;
      }

      .cls-2 {
        fill: #fff;
      }

      .cls-3 {
        fill: #262626;
      }
    </style>
  </defs>
  <g id="flaticon1510136849-svg" class="cls-1" transform="translate(6531.54 4191)">
    <circle id="Ellipse_6" data-name="Ellipse 6" class="cls-2" cx="15.361" cy="15.361" r="15.361" transform="translate(0 0)"/>
    <g id="Group_1207" data-name="Group 1207" transform="translate(6.874 9.318)">
      <path id="Path_1756" data-name="Path 1756" class="cls-3" d="M43,35.75a7.326,7.326,0,0,1-2.109.577A3.682,3.682,0,0,0,42.506,34.3a7.35,7.35,0,0,1-2.332.891,3.675,3.675,0,0,0-6.257,3.349A10.423,10.423,0,0,1,26.349,34.7a3.676,3.676,0,0,0,1.136,4.9,3.646,3.646,0,0,1-1.663-.46c0,.016,0,.031,0,.047a3.674,3.674,0,0,0,2.946,3.6,3.686,3.686,0,0,1-1.658.064,3.676,3.676,0,0,0,3.43,2.55,7.412,7.412,0,0,1-5.436,1.52,10.442,10.442,0,0,0,16.075-8.8c0-.159,0-.318-.011-.475A7.446,7.446,0,0,0,43,35.75Z" transform="translate(-25.103 -34.028)"/>
    </g>
  </g>
</svg>
